<svg width="105" height="105" viewBox="0 0 105 105" fill="none" xmlns="http://www.w3.org/2000/svg">
<g clip-path="url(#clip0_1434_748)">
<g clip-path="url(#clip1_1434_748)">
<path d="M90.8351 54.6865C90.8002 54.2665 90.7302 53.8114 90.6078 53.3389C89.7332 50.0837 85.3058 48.2807 83.6436 45.4279C81.9639 42.5226 82.612 37.7801 80.2672 35.4347C77.9049 33.0719 73.1797 33.7363 70.2748 32.0559C67.4224 30.393 65.6204 25.9652 62.3654 25.0898C59.198 24.2319 55.435 27.154 52.0049 27.1536C48.5748 27.1532 44.8126 24.2302 41.6624 25.0698C38.4072 25.9445 36.6041 30.3719 33.7514 32.0341C30.8461 33.7137 26.1035 33.0657 23.7407 35.4279C21.3779 37.7902 22.0423 42.5154 20.3619 45.4203C18.699 48.2727 14.2712 50.0747 13.3958 53.3297C13.2732 53.8022 13.2207 54.2397 13.1681 54.6772L13.1681 54.7472C13.1506 55.0447 13.1505 55.3247 13.168 55.6222L13.1674 60.9773C13.1649 62.7223 13.5067 64.4506 14.1732 66.0633C14.8398 67.6759 15.8179 69.1412 17.0517 70.3752C18.2854 71.6093 19.7504 72.5878 21.3629 73.2547C22.9754 73.9216 24.7037 74.2638 26.4486 74.2618L77.585 74.2679C79.3299 74.2704 81.0582 73.9286 82.6709 73.262C84.2835 72.5955 85.7488 71.6173 86.9829 70.3836C88.2169 69.1499 89.1954 67.6848 89.8623 66.0723C90.5292 64.4598 90.8714 62.7316 90.8694 60.9867L90.8351 54.6865Z" fill="#FFCE7C"/>
<path d="M52.8605 42.2566C40.7152 42.2552 30.8438 52.1243 30.8423 64.2696L30.8411 74.2448L74.8723 74.2501L74.8735 64.2748C74.8749 52.0945 65.0234 42.2406 52.8605 42.2566Z" fill="#FFDEA7"/>
<path d="M65.3034 41.4706C66.5109 42.1182 68.0335 41.6809 68.6812 40.4734L72.7247 33.0012L71.7622 32.7386C70.7997 32.406 69.9072 31.8984 69.0848 31.2858L68.3673 30.6032L64.3238 38.0754C63.6587 39.3003 64.096 40.8229 65.3034 41.4706ZM52.0035 37.7239C50.6385 37.7237 49.5186 36.6036 49.5188 35.2385L49.5023 26.7508L50.4823 26.9959C51.4798 27.1535 52.5298 27.1537 53.5274 26.9963L54.4899 26.7339L54.4889 35.2391C54.4887 36.6041 53.3686 37.724 52.0035 37.7239ZM38.5627 41.4674C37.3551 42.1147 35.8327 41.677 35.1853 40.4694L31.1611 33.0138L32.1061 32.7689C33.0687 32.4365 33.9613 31.9291 34.7839 31.3166L35.5015 30.6342L39.5432 38.1074C40.2081 39.2975 39.7704 40.82 38.5627 41.4674ZM24.911 52.981C26.0309 53.7862 27.571 53.5414 28.3937 52.4389C28.7864 51.9075 28.9551 51.2433 28.8636 50.5889C28.772 49.9345 28.4275 49.3421 27.9041 48.9388L21.0445 43.8978L20.6769 44.8253C20.2043 45.7528 19.5916 46.5752 18.874 47.2927L18.0864 47.9401L24.911 52.981ZM78.9174 52.9875C77.7973 53.7924 76.2573 53.5472 75.4349 52.4446C74.63 51.3244 74.8752 49.7844 75.9428 48.962L82.8036 43.9227L83.171 44.8503C83.6434 45.7779 84.2558 46.6005 84.9733 47.3181L85.7432 47.9482L78.9174 52.9875Z" fill="#F3AD61"/>
</g>
</g>
<defs>
<clipPath id="clip0_1434_748">
<rect width="105" height="105" fill="white"/>
</clipPath>
<clipPath id="clip1_1434_748">
<rect width="79.198" height="79.198" fill="white" transform="translate(52.0081 -3) rotate(45.0069)"/>
</clipPath>
</defs>
</svg>
