<svg width="26" height="26" viewBox="0 0 26 26" fill="none" xmlns="http://www.w3.org/2000/svg">
<path d="M13 1.08333C16.9877 1.08333 20.5833 3.86208 20.5833 7.58333V12.5006C20.5833 13.1961 20.7881 13.8753 21.1737 14.4538L23.5571 18.0267C23.7226 18.2742 23.8177 18.5621 23.8322 18.8596C23.8468 19.157 23.7803 19.4528 23.6397 19.7154C23.4992 19.9779 23.29 20.1974 23.0345 20.3502C22.7789 20.5031 22.4866 20.5837 22.1888 20.5833H16.7917C16.7917 21.0813 16.6936 21.5743 16.503 22.0343C16.3125 22.4944 16.0332 22.9124 15.6811 23.2644C15.329 23.6165 14.911 23.8958 14.451 24.0864C13.991 24.2769 13.4979 24.375 13 24.375C12.5021 24.375 12.009 24.2769 11.549 24.0864C11.089 23.8958 10.671 23.6165 10.3189 23.2644C9.96679 22.9124 9.6875 22.4944 9.49695 22.0343C9.3064 21.5743 9.20833 21.0813 9.20833 20.5833H3.81225C3.51459 20.5836 3.22245 20.503 2.96698 20.3503C2.7115 20.1975 2.50228 19.9783 2.36161 19.716C2.22094 19.4537 2.15411 19.1581 2.16824 18.8608C2.18236 18.5635 2.27692 18.2755 2.44183 18.0277L4.82516 14.4538C5.21084 13.8754 5.41666 13.1958 5.41666 12.5006V7.58333C5.41666 3.86208 9.01116 1.08333 13 1.08333ZM7.04166 7.58333V12.5006C7.04194 13.5165 6.74152 14.5097 6.17825 15.3552L3.79491 18.928L3.79166 18.9388L3.79275 18.9464L3.79708 18.9529L3.80358 18.9572L3.81116 18.9583H22.1888L22.1964 18.9572L22.2029 18.9529L22.2072 18.9464L22.2083 18.9399L22.2051 18.9291L19.8228 15.3552C19.2592 14.5098 18.9584 13.5166 18.9583 12.5006V7.58333C18.9583 5.02233 16.3767 2.70833 13 2.70833C9.62325 2.70833 7.04166 5.02233 7.04166 7.58333ZM15.1667 20.5833H10.8333C10.8333 21.158 11.0616 21.7091 11.4679 22.1154C11.8743 22.5217 12.4254 22.75 13 22.75C13.5746 22.75 14.1257 22.5217 14.5321 22.1154C14.9384 21.7091 15.1667 21.158 15.1667 20.5833Z" fill="#8B8B8B"/>
</svg>
