<svg width="27" height="27" viewBox="0 0 27 27" fill="none" xmlns="http://www.w3.org/2000/svg">
<g clip-path="url(#clip0_1034_1915)">
<path fill-rule="evenodd" clip-rule="evenodd" d="M18 16.875C19.4692 16.875 20.7202 17.8144 21.1838 19.125H22.5C22.7984 19.125 23.0845 19.2435 23.2955 19.4545C23.5065 19.6655 23.625 19.9516 23.625 20.25C23.625 20.5484 23.5065 20.8345 23.2955 21.0455C23.0845 21.2565 22.7984 21.375 22.5 21.375H21.1838C20.9513 22.0337 20.5203 22.6041 19.9501 23.0076C19.3799 23.4111 18.6985 23.6278 18 23.6278C17.3015 23.6278 16.6201 23.4111 16.0499 23.0076C15.4797 22.6041 15.0487 22.0337 14.8162 21.375H4.5C4.20163 21.375 3.91548 21.2565 3.7045 21.0455C3.49353 20.8345 3.375 20.5484 3.375 20.25C3.375 19.9516 3.49353 19.6655 3.7045 19.4545C3.91548 19.2435 4.20163 19.125 4.5 19.125H14.8162C15.049 18.4667 15.4802 17.8968 16.0504 17.4938C16.6206 17.0908 17.3018 16.8746 18 16.875ZM18 19.125C17.7016 19.125 17.4155 19.2435 17.2045 19.4545C16.9935 19.6655 16.875 19.9516 16.875 20.25C16.875 20.5484 16.9935 20.8345 17.2045 21.0455C17.4155 21.2565 17.7016 21.375 18 21.375C18.2984 21.375 18.5845 21.2565 18.7955 21.0455C19.0065 20.8345 19.125 20.5484 19.125 20.25C19.125 19.9516 19.0065 19.6655 18.7955 19.4545C18.5845 19.2435 18.2984 19.125 18 19.125ZM9 10.125C9.66261 10.1249 10.3106 10.3199 10.8632 10.6856C11.4157 11.0513 11.8484 11.5715 12.1073 12.1815L12.1826 12.375H22.5C22.7867 12.3753 23.0625 12.4851 23.271 12.682C23.4795 12.8788 23.605 13.1478 23.6218 13.4341C23.6386 13.7203 23.5455 14.0022 23.3615 14.2221C23.1774 14.4419 22.9164 14.5833 22.6316 14.6171L22.5 14.625H12.1838C11.9569 15.2666 11.5416 15.8246 10.9921 16.226C10.4426 16.6274 9.78462 16.8534 9.10446 16.8743C8.4243 16.8952 7.75369 16.7101 7.18057 16.3433C6.60744 15.9764 6.15855 15.4449 5.89275 14.8185L5.81625 14.625H4.5C4.21326 14.6247 3.93746 14.5149 3.72896 14.318C3.52046 14.1212 3.39499 13.8522 3.37818 13.5659C3.36138 13.2797 3.45451 12.9978 3.63855 12.7779C3.82259 12.5581 4.08364 12.4167 4.36837 12.3829L4.5 12.375H5.81625C6.04899 11.7167 6.48018 11.1468 7.0504 10.7438C7.62061 10.3408 8.30177 10.1246 9 10.125ZM9 12.375C8.70163 12.375 8.41548 12.4935 8.2045 12.7045C7.99353 12.9155 7.875 13.2016 7.875 13.5C7.875 13.7984 7.99353 14.0845 8.2045 14.2955C8.41548 14.5065 8.70163 14.625 9 14.625C9.29837 14.625 9.58452 14.5065 9.7955 14.2955C10.0065 14.0845 10.125 13.7984 10.125 13.5C10.125 13.2016 10.0065 12.9155 9.7955 12.7045C9.58452 12.4935 9.29837 12.375 9 12.375ZM18 3.375C19.4692 3.375 20.7202 4.31438 21.1838 5.625H22.5C22.7984 5.625 23.0845 5.74353 23.2955 5.95451C23.5065 6.16548 23.625 6.45163 23.625 6.75C23.625 7.04837 23.5065 7.33452 23.2955 7.5455C23.0845 7.75647 22.7984 7.875 22.5 7.875H21.1838C20.9513 8.53373 20.5203 9.10414 19.9501 9.50761C19.3799 9.91109 18.6985 10.1278 18 10.1278C17.3015 10.1278 16.6201 9.91109 16.0499 9.50761C15.4797 9.10414 15.0487 8.53373 14.8162 7.875H4.5C4.20163 7.875 3.91548 7.75647 3.7045 7.5455C3.49353 7.33452 3.375 7.04837 3.375 6.75C3.375 6.45163 3.49353 6.16548 3.7045 5.95451C3.91548 5.74353 4.20163 5.625 4.5 5.625H14.8162C15.049 4.9667 15.4802 4.39679 16.0504 3.99381C16.6206 3.59084 17.3018 3.37463 18 3.375ZM18 5.625C17.7016 5.625 17.4155 5.74353 17.2045 5.95451C16.9935 6.16548 16.875 6.45163 16.875 6.75C16.875 7.04837 16.9935 7.33452 17.2045 7.5455C17.4155 7.75647 17.7016 7.875 18 7.875C18.2984 7.875 18.5845 7.75647 18.7955 7.5455C19.0065 7.33452 19.125 7.04837 19.125 6.75C19.125 6.45163 19.0065 6.16548 18.7955 5.95451C18.5845 5.74353 18.2984 5.625 18 5.625Z" fill="#8B8B8B"/>
</g>
<defs>
<clipPath id="clip0_1034_1915">
<rect width="27" height="27" fill="white"/>
</clipPath>
</defs>
</svg>
