<svg width="17" height="17" viewBox="0 0 17 17" fill="none" xmlns="http://www.w3.org/2000/svg">
<g clip-path="url(#clip0_1008_1111)">
<rect width="17" height="17" rx="3" fill="#DCEC9D"/>
<path d="M11.6556 5.28063C11.8053 5.13813 12.0045 5.05936 12.2111 5.06092C12.4178 5.06248 12.6157 5.14427 12.7632 5.28901C12.9107 5.43375 12.9962 5.63013 13.0017 5.83671C13.0072 6.04329 12.9322 6.24392 12.7925 6.39625L8.55314 11.6981C8.48024 11.7766 8.39226 11.8397 8.29446 11.8834C8.19665 11.9271 8.09103 11.9507 7.98391 11.9527C7.87679 11.9547 7.77036 11.935 7.67101 11.8949C7.57165 11.8548 7.48139 11.7951 7.40564 11.7194L4.59426 8.908C4.51597 8.83505 4.45318 8.74707 4.40962 8.64932C4.36607 8.55157 4.34265 8.44605 4.34076 8.33906C4.33887 8.23206 4.35856 8.12578 4.39863 8.02655C4.43871 7.92733 4.49837 7.83719 4.57404 7.76152C4.64971 7.68585 4.73984 7.6262 4.83907 7.58612C4.93829 7.54604 5.04457 7.52636 5.15157 7.52825C5.25857 7.53014 5.36409 7.55355 5.46184 7.59711C5.55959 7.64066 5.64756 7.70346 5.72051 7.78175L7.94539 10.0056L11.6355 5.304L11.6556 5.28063Z" fill="white"/>
</g>
<defs>
<clipPath id="clip0_1008_1111">
<rect width="17" height="17" rx="3" fill="white"/>
</clipPath>
</defs>
</svg>
