<svg width="45" height="45" viewBox="0 0 45 45" fill="none" xmlns="http://www.w3.org/2000/svg">
<g clip-path="url(#clip0_990_1466)">
<rect width="45" height="45" rx="6" fill="#ABD794"/>
<path d="M35 24.996H25V34.996C25 35.5264 24.7893 36.0351 24.4142 36.4102C24.0391 36.7853 23.5304 36.996 23 36.996C22.4696 36.996 21.9609 36.7853 21.5858 36.4102C21.2107 36.0351 21 35.5264 21 34.996V24.996H11C10.4696 24.996 9.96086 24.7853 9.58579 24.4102C9.21071 24.0351 9 23.5264 9 22.996C9 22.4656 9.21071 21.9569 9.58579 21.5818C9.96086 21.2067 10.4696 20.996 11 20.996H21V10.996C21 10.4656 21.2107 9.95686 21.5858 9.58178C21.9609 9.20671 22.4696 8.996 23 8.996C23.5304 8.996 24.0391 9.20671 24.4142 9.58178C24.7893 9.95686 25 10.4656 25 10.996V20.996H35C35.5304 20.996 36.0391 21.2067 36.4142 21.5818C36.7893 21.9569 37 22.4656 37 22.996C37 23.5264 36.7893 24.0351 36.4142 24.4102C36.0391 24.7853 35.5304 24.996 35 24.996Z" fill="white"/>
</g>
<defs>
<clipPath id="clip0_990_1466">
<rect width="45" height="45" rx="6" fill="white"/>
</clipPath>
</defs>
</svg>
