<svg width="26" height="26" viewBox="0 0 26 26" fill="none" xmlns="http://www.w3.org/2000/svg">
<path d="M21.5057 23.0417C21.5057 19.1395 17.155 15.9675 13.2528 15.9675C9.35067 15.9675 5 19.1395 5 23.0417M13.2528 12.4315C14.5035 12.4315 15.703 11.9347 16.5874 11.0503C17.4717 10.1659 17.9686 8.96645 17.9686 7.71575C17.9686 6.46506 17.4717 5.26559 16.5874 4.38121C15.703 3.49684 14.5035 3 13.2528 3C12.0021 3 10.8027 3.49684 9.9183 4.38121C9.03392 5.26559 8.53708 6.46506 8.53708 7.71575C8.53708 8.96645 9.03392 10.1659 9.9183 11.0503C10.8027 11.9347 12.0021 12.4315 13.2528 12.4315Z" stroke="black" stroke-width="1.5" stroke-linecap="round" stroke-linejoin="round"/>
</svg>
