<svg width="24" height="24" viewBox="0 0 24 24" fill="none" xmlns="http://www.w3.org/2000/svg">
<path fill-rule="evenodd" clip-rule="evenodd" d="M14.9475 16.539C13.4246 17.6609 11.534 18.1659 9.6545 17.9529C7.775 17.7399 6.04539 16.8246 4.81219 15.3903C3.579 13.956 2.93329 12.1088 3.00443 10.2186C3.07557 8.32836 3.8583 6.53485 5.19582 5.19733C6.53334 3.85981 8.32685 3.07708 10.217 3.00594C12.1072 2.9348 13.9545 3.58051 15.3888 4.8137C16.8231 6.0469 17.7384 7.77651 17.9514 9.65601C18.1644 11.5355 17.6594 13.4261 16.5375 14.949L20.67 19.08C20.7805 19.183 20.8692 19.3072 20.9307 19.4452C20.9922 19.5832 21.0252 19.7322 21.0279 19.8832C21.0305 20.0343 21.0028 20.1843 20.9462 20.3244C20.8896 20.4645 20.8054 20.5917 20.6986 20.6986C20.5917 20.8054 20.4645 20.8896 20.3244 20.9462C20.1843 21.0028 20.0343 21.0306 19.8832 21.0279C19.7322 21.0252 19.5832 20.9922 19.4452 20.9307C19.3072 20.8692 19.183 20.7805 19.08 20.67L14.9475 16.539ZM15.75 10.5C15.75 11.8924 15.1969 13.2277 14.2123 14.2123C13.2277 15.1969 11.8924 15.75 10.5 15.75C9.10761 15.75 7.77225 15.1969 6.78768 14.2123C5.80312 13.2277 5.24999 11.8924 5.24999 10.5C5.24999 9.10762 5.80312 7.77226 6.78768 6.78769C7.77225 5.80313 9.10761 5.25 10.5 5.25C11.8924 5.25 13.2277 5.80313 14.2123 6.78769C15.1969 7.77226 15.75 9.10762 15.75 10.5Z" fill="#B9B9B9"/>
</svg>
