<svg width="26" height="26" viewBox="0 0 26 26" fill="none" xmlns="http://www.w3.org/2000/svg">
<g clip-path="url(#clip0_1237_1084)">
<path d="M14.1471 24.4706H6.88239C4.97063 24.4706 3.48909 24.4621 2.29418 23.3235C-0.154158 20.9911 4.50996 18.0667 6.04288 17.1545C8.13913 15.9135 10.5749 15.3692 13 15.5999M22.1 22.4823L23.8334 24.2157M16.7917 7.42401C16.7917 8.06421 16.6656 8.69813 16.4206 9.28959C16.1756 9.88106 15.8165 10.4185 15.3639 10.8712C14.9112 11.3238 14.3738 11.6829 13.7823 11.9279C13.1908 12.1729 12.5569 12.299 11.9167 12.299C11.2765 12.299 10.6426 12.1729 10.0511 11.9279C9.45966 11.6829 8.92225 11.3238 8.46956 10.8712C8.01688 10.4185 7.65779 9.88106 7.4128 9.28959C7.1678 8.69813 7.04171 8.06421 7.04171 7.42401C7.04171 6.13108 7.55532 4.89111 8.46956 3.97687C9.3838 3.06263 10.6238 2.54901 11.9167 2.54901C13.2096 2.54901 14.4496 3.06263 15.3639 3.97687C16.2781 4.89111 16.7917 6.13108 16.7917 7.42401ZM22.9667 19.449C22.9667 18.4147 22.5558 17.4227 21.8244 16.6913C21.093 15.9599 20.1011 15.549 19.0667 15.549C18.0324 15.549 17.0404 15.9599 16.309 16.6913C15.5776 17.4227 15.1667 18.4147 15.1667 19.449C15.1667 20.4834 15.5776 21.4753 16.309 22.2067C17.0404 22.9381 18.0324 23.349 19.0667 23.349C20.1011 23.349 21.093 22.9381 21.8244 22.2067C22.5558 21.4753 22.9667 20.4834 22.9667 19.449Z" stroke="black" stroke-width="1.5" stroke-linecap="round" stroke-linejoin="round"/>
</g>
<defs>
<clipPath id="clip0_1237_1084">
<rect width="26" height="26" fill="white"/>
</clipPath>
</defs>
</svg>
