<svg width="106" height="106" viewBox="0 0 106 106" fill="none" xmlns="http://www.w3.org/2000/svg">
<g filter="url(#filter0_i_998_1074)">
<g clip-path="url(#clip0_998_1074)">
<rect width="106" height="106" rx="53" fill="white"/>
<g clip-path="url(#clip1_998_1074)">
<path d="M91.8351 54.6865C91.8002 54.2665 91.7302 53.8115 91.6078 53.3389C90.7332 50.0837 86.3058 48.2807 84.6436 45.4279C82.9639 42.5226 83.612 37.7801 81.2672 35.4347C78.9049 33.0719 74.1797 33.7363 71.2748 32.0559C68.4224 30.3931 66.6204 25.9652 63.3654 25.0898C60.198 24.2319 56.435 27.154 53.0049 27.1536C49.5748 27.1532 45.8126 24.2302 42.6624 25.0698C39.4072 25.9445 37.6041 30.3719 34.7514 32.0341C31.8461 33.7138 27.1035 33.0657 24.7407 35.428C22.3779 37.7902 23.0423 42.5154 21.3619 45.4203C19.699 48.2727 15.2712 50.0747 14.3958 53.3297C14.2732 53.8022 14.2207 54.2397 14.1681 54.6772L14.1681 54.7472C14.1506 55.0447 14.1505 55.3247 14.168 55.6222L14.1674 60.9774C14.1649 62.7223 14.5067 64.4506 15.1732 66.0633C15.8398 67.6759 16.8179 69.1412 18.0517 70.3753C19.2854 71.6093 20.7504 72.5878 22.3629 73.2547C23.9754 73.9216 25.7037 74.2638 27.4486 74.2618L78.585 74.2679C80.3299 74.2704 82.0582 73.9286 83.6709 73.262C85.2835 72.5955 86.7488 71.6174 87.9829 70.3836C89.2169 69.1499 90.1954 67.6848 90.8623 66.0723C91.5292 64.4598 91.8714 62.7316 91.8694 60.9867L91.8351 54.6865Z" fill="#FFCE7C"/>
<path d="M53.8605 42.2566C41.7152 42.2552 31.8438 52.1242 31.8423 64.2696L31.8411 74.2448L75.8723 74.2501L75.8735 64.2748C75.8749 52.0945 66.0234 42.2406 53.8605 42.2566Z" fill="#FFDEA7"/>
<path d="M66.3034 41.4706C67.5109 42.1182 69.0335 41.6809 69.6812 40.4735L73.7247 33.0013L72.7622 32.7386C71.7997 32.406 70.9072 31.8984 70.0848 31.2858L69.3673 30.6032L65.3238 38.0754C64.6587 39.3003 65.096 40.8229 66.3034 41.4706ZM53.0035 37.7239C51.6385 37.7237 50.5186 36.6036 50.5188 35.2385L50.5023 26.7508L51.4823 26.9959C52.4798 27.1536 53.5298 27.1537 54.5274 26.9963L55.4899 26.7339L55.4889 35.2391C55.4887 36.6042 54.3686 37.7241 53.0035 37.7239ZM39.5627 41.4674C38.3551 42.1148 36.8327 41.6771 36.1853 40.4695L32.1611 33.0138L33.1061 32.7689C34.0687 32.4365 34.9613 31.9291 35.7839 31.3167L36.5015 30.6342L40.5432 38.1074C41.2081 39.2975 40.7704 40.82 39.5627 41.4674ZM25.911 52.981C27.0309 53.7862 28.571 53.5414 29.3937 52.439C29.7864 51.9075 29.9551 51.2433 29.8636 50.5889C29.772 49.9345 29.4275 49.3421 28.9041 48.9388L22.0445 43.8979L21.6769 44.8253C21.2043 45.7528 20.5916 46.5753 19.874 47.2927L19.0864 47.9401L25.911 52.981ZM79.9174 52.9875C78.7973 53.7924 77.2573 53.5472 76.4349 52.4446C75.63 51.3245 75.8752 49.7845 76.9428 48.9621L83.8036 43.9227L84.171 44.8503C84.6434 45.7779 85.2558 46.6005 85.9733 47.3181L86.7432 47.9482L79.9174 52.9875Z" fill="#F3AD61"/>
<path d="M34.53 74.5499H73.4688C78.1697 74.5499 80.566 72.1989 80.566 67.5434V43.8807C80.566 39.2252 78.1697 36.8974 73.4688 36.8974H68.1807C66.418 36.8974 65.876 36.5358 64.8587 35.4056L63.0275 33.371C61.9205 32.129 60.7682 31.4501 58.4173 31.4501H49.4224C47.0946 31.4501 45.9413 32.129 44.8122 33.371L42.981 35.4056C41.9868 36.5126 41.4217 36.8974 39.659 36.8974H34.529C29.8281 36.8974 27.4319 39.2252 27.4319 43.8807V67.5434C27.4319 72.1989 29.8291 74.5499 34.53 74.5499ZM34.5965 70.9106C32.3594 70.9106 31.0711 69.713 31.0711 67.3621V44.0842C31.0711 41.7333 32.3594 40.5356 34.5965 40.5356H40.5626C42.5972 40.5356 43.682 40.1519 44.8122 38.8867L46.5971 36.8974C47.8853 35.451 48.5411 35.0894 50.5526 35.0894H57.2871C59.2986 35.0894 59.9543 35.451 61.2426 36.8974L63.0275 38.8858C64.1577 40.1519 65.2425 40.5356 67.2771 40.5356H73.4013C75.6385 40.5356 76.9277 41.7333 76.9277 44.0842V67.3621C76.9277 69.713 75.6394 70.9106 73.4013 70.9106H34.5965ZM53.9883 67.3177C55.6119 67.3223 57.2204 67.0055 58.721 66.3856C60.2217 65.7657 61.5848 64.8549 62.7318 63.7058C63.8788 62.5566 64.787 61.1918 65.4041 59.69C66.0212 58.1882 66.335 56.5792 66.3273 54.9556C66.3273 48.0841 60.8579 42.5934 53.9873 42.5934C47.1621 42.5934 41.6705 48.0841 41.6705 54.9556C41.6705 61.8251 47.1621 67.3177 53.9873 67.3177M70.2365 49.4399C71.7736 49.4399 73.0387 48.1979 73.0387 46.6608C73.0387 45.9176 72.7435 45.2048 72.218 44.6793C71.6925 44.1538 70.9797 43.8586 70.2365 43.8586C69.4933 43.8586 68.7806 44.1538 68.2551 44.6793C67.7295 45.2048 67.4343 45.9176 67.4343 46.6608C67.4343 48.1979 68.6995 49.4399 70.2365 49.4399ZM53.9883 63.8829C49.084 63.8829 45.0841 59.9052 45.0841 54.9556C45.0841 50.0059 49.0618 46.0292 53.9883 46.0292C55.161 46.0278 56.3224 46.2577 57.4061 46.7058C58.4898 47.1539 59.4744 47.8113 60.3037 48.6405C61.1329 49.4696 61.7905 50.4542 62.2387 51.5379C62.6869 52.6215 62.9169 53.7829 62.9157 54.9556C62.9171 56.1283 62.6871 57.2898 62.239 58.3736C61.7908 59.4573 61.1333 60.442 60.304 61.2713C59.4748 62.1005 58.4901 62.7581 57.4063 63.2062C56.3226 63.6544 55.1611 63.8843 53.9883 63.8829Z" fill="#757575"/>
</g>
</g>
<rect x="2.5" y="2.5" width="101" height="101" rx="50.5" stroke="#ABD794" stroke-width="5"/>
</g>
<defs>
<filter id="filter0_i_998_1074" x="0" y="0" width="106" height="110" filterUnits="userSpaceOnUse" color-interpolation-filters="sRGB">
<feFlood flood-opacity="0" result="BackgroundImageFix"/>
<feBlend mode="normal" in="SourceGraphic" in2="BackgroundImageFix" result="shape"/>
<feColorMatrix in="SourceAlpha" type="matrix" values="0 0 0 0 0 0 0 0 0 0 0 0 0 0 0 0 0 0 127 0" result="hardAlpha"/>
<feOffset dy="4"/>
<feGaussianBlur stdDeviation="2"/>
<feComposite in2="hardAlpha" operator="arithmetic" k2="-1" k3="1"/>
<feColorMatrix type="matrix" values="0 0 0 0 0 0 0 0 0 0 0 0 0 0 0 0 0 0 0.25 0"/>
<feBlend mode="normal" in2="shape" result="effect1_innerShadow_998_1074"/>
</filter>
<clipPath id="clip0_998_1074">
<rect width="106" height="106" rx="53" fill="white"/>
</clipPath>
<clipPath id="clip1_998_1074">
<rect width="79.198" height="79.198" fill="white" transform="translate(53.0081 -3) rotate(45.0069)"/>
</clipPath>
</defs>
</svg>
