<svg width="1466" height="607" viewBox="0 0 1466 607" fill="none" xmlns="http://www.w3.org/2000/svg">
<path d="M207.664 358.4C199.131 358.4 192.197 356.133 186.864 351.6C181.531 347.067 178.864 340.533 178.864 332C178.864 323.467 181.531 316.933 186.864 312.4C192.197 307.867 199.131 305.6 207.664 305.6H226.864C225.531 298.133 224.597 290.267 224.064 282C223.531 273.733 223.264 265.867 223.264 258.4V249.2C223.264 240.667 225.797 233.733 230.864 228.4C235.931 223.067 243.531 220.4 253.664 220.4C263.531 220.4 270.997 223.067 276.064 228.4C281.397 233.733 284.064 240.667 284.064 249.2V258.4C284.064 266.4 284.064 274.4 284.064 282.4C284.331 290.133 284.864 297.867 285.664 305.6H349.264C350.064 297.867 350.597 290.133 350.864 282.4C351.131 274.4 351.264 266.4 351.264 258.4V249.2C351.264 240.667 353.797 233.733 358.864 228.4C364.197 223.067 371.797 220.4 381.664 220.4C391.797 220.4 399.397 223.067 404.464 228.4C409.531 233.733 412.064 240.667 412.064 249.2V258.4C412.064 265.867 411.797 273.733 411.264 282C410.731 290.267 409.797 298.133 408.464 305.6H427.664C436.197 305.6 443.131 307.867 448.464 312.4C453.797 316.933 456.464 323.467 456.464 332C456.464 340.533 453.797 347.067 448.464 351.6C443.131 356.133 436.197 358.4 427.664 358.4H207.664ZM167.664 462C158.597 462 151.531 459.733 146.464 455.2C141.397 450.667 138.864 443.867 138.864 434.8C138.864 425.733 141.397 418.933 146.464 414.4C151.531 409.867 158.597 407.6 167.664 407.6H467.664C476.731 407.6 483.797 409.867 488.864 414.4C493.931 418.933 496.464 425.733 496.464 434.8C496.464 443.867 493.931 450.667 488.864 455.2C483.797 459.733 476.731 462 467.664 462H167.664ZM205.264 208.4C196.731 208.4 189.797 206.133 184.464 201.6C179.131 197.067 176.464 190.533 176.464 182C176.464 173.467 179.131 166.933 184.464 162.4C189.797 157.867 196.731 155.6 205.264 155.6H430.064C438.597 155.6 445.531 157.867 450.864 162.4C456.197 166.933 458.864 173.467 458.864 182C458.864 190.533 456.197 197.067 450.864 201.6C445.531 206.133 438.597 208.4 430.064 208.4H205.264ZM771.555 295.6C771.555 321.467 758.355 334.4 731.955 334.4H619.155C592.755 334.4 579.555 321.467 579.555 295.6V184C579.555 158.133 592.755 145.2 619.155 145.2H731.955C758.355 145.2 771.555 158.133 771.555 184V295.6ZM656.755 364.8C666.088 364.8 673.821 367.467 679.955 372.8C686.088 378.133 689.155 385.6 689.155 395.2V444C689.155 446.933 689.555 448.8 690.355 449.6C691.155 450.4 693.021 450.8 695.955 450.8H862.355C870.888 450.8 877.555 453.067 882.355 457.6C887.155 462.133 889.555 468.667 889.555 477.2C889.555 485.733 887.155 492.267 882.355 496.8C877.555 501.333 870.888 503.6 862.355 503.6H660.755C647.688 503.6 638.355 500.933 632.755 495.6C627.155 490.267 624.355 481.2 624.355 468.4V395.2C624.355 385.6 627.421 378.133 633.555 372.8C639.688 367.467 647.421 364.8 656.755 364.8ZM815.555 165.6C815.555 156.267 818.488 149.2 824.355 144.4C830.488 139.333 838.221 136.8 847.555 136.8C856.888 136.8 864.488 139.333 870.355 144.4C876.488 149.2 879.555 156.267 879.555 165.6V220.8H907.155C915.688 220.8 922.621 222.933 927.955 227.2C933.288 231.467 935.955 238.133 935.955 247.2C935.955 256.267 933.288 262.933 927.955 267.2C922.621 271.467 915.688 273.6 907.155 273.6H879.555V364C879.555 373.333 876.488 380.533 870.355 385.6C864.488 390.667 856.888 393.2 847.555 393.2C838.221 393.2 830.488 390.667 824.355 385.6C818.488 380.533 815.555 373.333 815.555 364V165.6ZM709.955 200.4C709.955 196.667 708.088 194.8 704.355 194.8H646.755C643.021 194.8 641.155 196.667 641.155 200.4V278.8C641.155 282.533 643.021 284.4 646.755 284.4H704.355C708.088 284.4 709.955 282.533 709.955 278.8V200.4ZM1062.65 217.2C1053.85 217.2 1046.91 215.2 1041.85 211.2C1036.78 206.933 1034.25 200.4 1034.25 191.6C1034.25 182.8 1036.78 176.4 1041.85 172.4C1046.91 168.133 1053.85 166 1062.65 166H1141.45V149.6C1141.45 141.867 1144.25 135.467 1149.85 130.4C1155.45 125.333 1163.31 122.8 1173.45 122.8C1183.58 122.8 1191.45 125.333 1197.05 130.4C1202.65 135.467 1205.45 141.867 1205.45 149.6V166H1284.25C1293.05 166 1299.98 168.133 1305.05 172.4C1310.11 176.4 1312.65 182.8 1312.65 191.6C1312.65 200.4 1310.11 206.933 1305.05 211.2C1299.98 215.2 1293.05 217.2 1284.25 217.2H1206.25C1208.11 224.133 1212.25 230.4 1218.65 236C1225.05 241.6 1232.65 246.667 1241.45 251.2C1250.51 255.733 1260.25 259.867 1270.65 263.6C1281.05 267.333 1291.18 270.933 1301.05 274.4C1308.51 277.067 1313.58 281.6 1316.25 288C1319.18 294.4 1319.18 301.467 1316.25 309.2C1313.31 316.667 1308.38 321.733 1301.45 324.4C1294.51 326.8 1287.05 326.8 1279.05 324.4C1269.18 321.467 1259.18 318.133 1249.05 314.4C1238.91 310.4 1229.18 306.133 1219.85 301.6C1210.78 297.067 1202.25 292.4 1194.25 287.6C1186.25 282.533 1179.31 277.467 1173.45 272.4C1167.58 277.467 1160.65 282.533 1152.65 287.6C1144.65 292.4 1135.98 297.067 1126.65 301.6C1117.58 306.133 1107.98 310.4 1097.85 314.4C1087.71 318.133 1077.71 321.467 1067.85 324.4C1059.85 326.8 1052.38 326.8 1045.45 324.4C1038.51 321.733 1033.58 316.667 1030.65 309.2C1027.71 301.467 1027.58 294.4 1030.25 288C1033.18 281.6 1038.38 277.067 1045.85 274.4C1055.71 270.933 1065.85 267.333 1076.25 263.6C1086.65 259.867 1096.25 255.733 1105.05 251.2C1113.85 246.667 1121.45 241.6 1127.85 236C1134.25 230.4 1138.38 224.133 1140.25 217.2H1062.65ZM1023.45 400C1014.38 400 1007.31 397.733 1002.25 393.2C997.179 388.667 994.645 381.867 994.645 372.8C994.645 363.733 997.179 356.933 1002.25 352.4C1007.31 347.867 1014.38 345.6 1023.45 345.6H1323.45C1332.51 345.6 1339.58 347.867 1344.65 352.4C1349.71 356.933 1352.25 363.733 1352.25 372.8C1352.25 381.867 1349.71 388.667 1344.65 393.2C1339.58 397.733 1332.51 400 1323.45 400H1205.45V478.8C1205.45 488.667 1202.51 496 1196.65 500.8C1191.05 505.6 1183.31 508 1173.45 508C1163.58 508 1155.71 505.6 1149.85 500.8C1144.25 496 1141.45 488.667 1141.45 478.8V400H1023.45Z" fill="black"/>
<path d="M530.489 256.766C530.302 254.495 529.926 252.034 529.266 249.479C524.551 231.879 500.614 222.154 491.638 206.735C482.567 191.032 486.095 165.378 473.425 152.707C460.66 139.942 435.1 143.565 419.397 134.494C403.978 125.518 394.253 101.581 376.653 96.8664C359.526 92.2458 339.16 108.073 320.608 108.092C302.056 108.111 281.722 92.3246 264.68 96.8852C247.07 101.636 237.297 125.592 221.86 134.6C206.138 143.702 180.491 140.226 167.7 153.017C154.909 165.808 158.48 191.36 149.378 207.082C140.37 222.519 116.414 232.292 111.663 249.902C110.998 252.459 110.712 254.825 110.425 257.192L110.425 257.57C110.329 259.179 110.327 260.694 110.42 262.303L110.391 291.266C110.369 300.704 112.209 310.049 115.807 318.767C119.404 327.485 124.687 335.404 131.354 342.071C138.02 348.738 145.939 354.021 154.657 357.618C163.375 361.215 172.721 363.056 182.159 363.034L458.73 362.754C468.168 362.756 477.517 360.897 486.242 357.282C494.968 353.667 502.897 348.368 509.578 341.688C516.258 335.008 521.557 327.078 525.172 318.353C528.787 309.627 530.646 300.278 530.643 290.84L530.489 256.766Z" fill="#FFCE7C"/>
<path d="M325.162 189.772C259.474 189.838 206.036 243.276 205.97 308.964L205.915 362.915L444.058 362.674L444.113 308.723C444.18 242.845 390.945 189.61 325.162 189.772Z" fill="#FFDEA7"/>
<path d="M198 185C198 173.954 206.954 165 218 165H432C443.046 165 452 173.954 452 185V195C452 206.046 443.046 215 432 215H218C206.954 215 198 206.046 198 195V185Z" fill="#F3AD61"/>
<path d="M372 323C360.954 323 352 314.046 352 303V244C352 232.954 360.954 224 372 224H382C393.046 224 402 232.954 402 244V303C402 314.046 393.046 323 382 323H372Z" fill="#F3AD61"/>
<path d="M275 323C263.954 323 255 314.046 255 303V244C255 232.954 263.954 224 275 224H285C296.046 224 305 232.954 305 244V303C305 314.046 296.046 323 285 323H275Z" fill="#F3AD61"/>
<path d="M198 325C198 313.954 206.954 305 218 305H432C443.046 305 452 313.954 452 325V335C452 346.046 443.046 355 432 355H218C206.954 355 198 346.046 198 335V325Z" fill="#F3AD61"/>
</svg>
